<svg width="123" height="56" viewBox="0 0 123 56" fill="none" xmlns="http://www.w3.org/2000/svg">
<g clip-path="url(#clip0_61_13)">
<path d="M13.4182 36.3999H15.8502V50.3999H13.4182V47.9919C12.2068 49.8399 10.4457 50.7639 8.13476 50.7639C6.17794 50.7639 4.50998 50.0499 3.13089 48.6219C1.7518 47.1939 1.06226 45.4533 1.06226 43.3999C1.06226 41.3466 1.7518 39.6059 3.13089 38.1779C4.50998 36.7499 6.17794 36.0359 8.13476 36.0359C10.4457 36.0359 12.2068 36.96 13.4182 38.8079V36.3999ZM8.44226 48.4119C9.85862 48.4119 11.042 47.9313 11.9925 46.9699C12.9429 46.0086 13.4182 44.8186 13.4182 43.3999C13.4182 41.9813 12.9429 40.7913 11.9925 39.8299C11.042 38.8686 9.85862 38.3879 8.44226 38.3879C7.04453 38.3879 5.87044 38.8686 4.91998 39.8299C3.96953 40.7913 3.4943 41.9813 3.4943 43.3999C3.4943 44.8186 3.96953 46.0086 4.91998 46.9699C5.87044 47.9313 7.04453 48.4119 8.44226 48.4119ZM21.9723 38.7519C22.7736 37.0159 24.2273 36.1479 26.3332 36.1479V38.6959C25.1404 38.6399 24.1154 38.9573 23.2582 39.6479C22.4009 40.3386 21.9723 41.4493 21.9723 42.9799V50.3999H19.5402V36.3999H21.9723V38.7519ZM43.8048 36.0359C45.3702 36.0359 46.6375 36.5446 47.6066 37.5619C48.5757 38.5793 49.0602 39.9559 49.0602 41.6919V50.3999H46.6282V41.7759C46.6282 40.6933 46.3486 39.8533 45.7895 39.2559C45.2304 38.6586 44.485 38.3599 43.5532 38.3599C42.5095 38.3599 41.6756 38.7099 41.0512 39.4099C40.4269 40.1099 40.1148 41.1786 40.1148 42.6159V50.3999H37.6827V41.7759C37.6827 40.6933 37.4171 39.8533 36.886 39.2559C36.3549 38.6586 35.6327 38.3599 34.7195 38.3599C33.6945 38.3599 32.8419 38.7146 32.1617 39.4239C31.4815 40.1333 31.1413 41.1973 31.1413 42.6159V50.3999H28.7093V36.3999H31.1413V38.2759C32.0918 36.7826 33.4802 36.0359 35.3066 36.0359C37.1889 36.0359 38.5586 36.8293 39.4159 38.4159C40.385 36.8293 41.8479 36.0359 43.8048 36.0359ZM62.1989 36.3999H64.7986L59.0959 51.2679C58.4995 52.8546 57.6656 54.0633 56.594 54.8939C55.5224 55.7246 54.2877 56.0933 52.89 55.9999V53.7319C54.6045 53.8626 55.8625 52.9106 56.6639 50.8759L56.9154 50.3439L50.8214 36.3999H53.4211L58.1734 47.3759L62.1989 36.3999Z" fill="#00D4D4"/>
<path d="M12.2254 5.03998C9.59119 4.84118 8.27453 5.89864 8.27453 8.21331V8.39997H12.2254V13.0293H8.27453V27.0666H3.46635V13.0293H0.782715V8.39997H3.46635V8.21331C3.46635 5.57478 4.19969 3.57184 5.66544 2.20264C7.13119 0.833441 9.31817 0.236108 12.2254 0.410641V5.03998ZM19.2327 11.6106C19.68 10.416 20.4189 9.51998 21.4504 8.92264C22.482 8.32531 23.6309 8.02664 24.8982 8.02664V13.4026C23.4324 13.2281 22.1214 13.5268 20.9659 14.2986C19.8104 15.0705 19.2327 16.352 19.2327 18.144V27.0666H14.4245V8.39997H19.2327V11.6106ZM43.5718 24.752C41.6588 26.6438 39.3227 27.5893 36.5645 27.5893C33.8064 27.5893 31.4768 26.6373 29.5759 24.7333C27.675 22.8293 26.7245 20.496 26.7245 17.7333C26.7245 14.9706 27.675 12.6373 29.5759 10.7333C31.4768 8.82931 33.8064 7.87731 36.5645 7.87731C39.3227 7.87731 41.6588 8.82931 43.5718 10.7333C45.4848 12.6373 46.4418 14.9706 46.4418 17.7333C46.4418 20.496 45.4848 22.8358 43.5718 24.752ZM32.9491 21.4293C33.9182 22.4 35.123 22.8853 36.5645 22.8853C38.0061 22.8853 39.2109 22.4 40.18 21.4293C41.1491 20.4586 41.6336 19.2266 41.6336 17.7333C41.6336 16.24 41.1491 15.008 40.18 14.0373C39.2109 13.0666 38.0061 12.5813 36.5645 12.5813C35.123 12.5813 33.9247 13.0666 32.9677 14.0373C32.0107 15.008 31.5327 16.24 31.5327 17.7333C31.5327 19.2266 32.0051 20.4586 32.9491 21.4293ZM60.1954 7.87731C62.2333 7.87731 63.9162 8.56144 65.2459 9.93064C66.5756 11.2998 67.24 13.1908 67.24 15.6053V27.0666H62.4318V16.2026C62.4318 14.9585 62.0964 14.0065 61.4254 13.3466C60.7545 12.6868 59.86 12.3573 58.7418 12.3573C57.4997 12.3573 56.5054 12.7428 55.76 13.5146C55.0145 14.2865 54.6418 15.4438 54.6418 16.9866V27.0666H49.8336V8.39997H54.6418V10.4906C55.8094 8.74811 57.6609 7.87731 60.1954 7.87731ZM82 13.0293H77.7882V20.7946C77.7882 21.4414 77.9494 21.9146 78.2727 22.2133C78.5961 22.512 79.0676 22.68 79.6891 22.7173C80.3106 22.7546 81.0803 22.7481 82 22.6986V27.0666C78.6948 27.44 76.3653 27.1292 75.0114 26.1333C73.6574 25.1374 72.98 23.3585 72.98 20.7946V13.0293H69.7373V8.39997H72.98V4.62931L77.7882 3.17331V8.39997H82V13.0293Z" fill="white"/>
<path fill-rule="evenodd" clip-rule="evenodd" d="M99.3449 8.63049L102.671 9.45556L92.2249 50.1694L88.9001 49.3444L99.3449 8.63049ZM107.905 14.4321L105.634 16.7374L120.156 31.9844L122.427 29.679L107.905 14.4321Z" fill="white"/>
<path fill-rule="evenodd" clip-rule="evenodd" d="M107.905 44.8979L105.634 42.5926L120.156 27.3466L122.427 29.652L107.905 44.8979Z" fill="white"/>
</g>
<defs>
<clipPath id="clip0_61_13">
<rect width="123" height="56" fill="white"/>
</clipPath>
</defs>
</svg>
